<?xml version="1.0" encoding="UTF-8"?>
<svg id="Layer_1" xmlns="http://www.w3.org/2000/svg" xmlns:xlink="http://www.w3.org/1999/xlink" version="1.1" viewBox="0 0 287.02 127.34">
  <!-- Generator: Adobe Illustrator 29.3.1, SVG Export Plug-In . SVG Version: 2.1.0 Build 151)  -->
  <defs>
    <style>
      .st0 {
        fill: url(#linear-gradient2);
      }

      .st1 {
        fill: url(#linear-gradient1);
      }

      .st2 {
        fill: #232323;
      }

      .st3 {
        fill: url(#linear-gradient);
      }
    </style>
    <linearGradient id="linear-gradient" x1="25.51" y1="39.71" x2="62.93" y2="39.71" gradientUnits="userSpaceOnUse">
      <stop offset=".08" stop-color="#6afe87"/>
      <stop offset="1" stop-color="#2b8443"/>
    </linearGradient>
    <linearGradient id="linear-gradient1" x1="25.5" y1="58.55" x2="64.33" y2="58.55" gradientUnits="userSpaceOnUse">
      <stop offset=".08" stop-color="#6afe87"/>
      <stop offset="1" stop-color="#2b8443"/>
    </linearGradient>
    <linearGradient id="linear-gradient2" x1="25.51" y1="79.74" x2="62.91" y2="79.74" xlink:href="#linear-gradient1"/>
  </defs>
  <g>
    <path class="st2" d="M77.8,35.31h11.9l5.31,34.45h.15l5.31-34.45h11.9v48.13h-7.88v-36.44h-.15l-6.06,36.44h-6.97l-6.06-36.44h-.15v36.44h-7.28v-48.13Z"/>
    <path class="st2" d="M125.03,35.31h11.3l8.64,48.13h-8.34l-1.52-9.56v.14h-9.48l-1.52,9.42h-7.73l8.64-48.13ZM134.13,67.49l-3.71-23.79h-.15l-3.64,23.79h7.5Z"/>
    <path class="st2" d="M148.99,35.31h12.36c4.3,0,7.43.91,9.4,2.72,1.97,1.81,2.96,4.6,2.96,8.35v2.96c0,5-1.82,8.16-5.46,9.49v.14c2.02.55,3.45,1.67,4.28,3.37.83,1.7,1.25,3.97,1.25,6.81v8.46c0,1.37.05,2.49.15,3.33.1.85.35,1.68.76,2.51h-8.49c-.3-.78-.51-1.51-.61-2.2-.1-.69-.15-1.92-.15-3.71v-8.8c0-2.2-.39-3.74-1.17-4.61-.78-.87-2.14-1.31-4.06-1.31h-2.88v20.63h-8.34v-48.13ZM160.36,55.94c1.67,0,2.92-.39,3.75-1.17.83-.78,1.25-2.09,1.25-3.92v-3.71c0-1.74-.34-3-1.02-3.78-.68-.78-1.76-1.17-3.22-1.17h-3.79v13.75h3.03Z"/>
    <path class="st2" d="M179.54,35.31h12.74c4.14,0,7.25,1.01,9.32,3.03,2.07,2.02,3.11,4.97,3.11,8.87v24.34c0,3.9-1.04,6.85-3.11,8.87-2.07,2.02-5.18,3.03-9.32,3.03h-12.74v-48.13ZM192.12,76.56c1.36,0,2.41-.37,3.15-1.1.73-.73,1.1-1.92,1.1-3.58v-25.03c0-1.65-.37-2.84-1.1-3.58-.73-.73-1.78-1.1-3.15-1.1h-4.25v34.38h4.25Z"/>
    <path class="st2" d="M213.19,81c-2.12-2.08-3.18-5.08-3.18-8.97v-36.71h8.34v37.26c0,1.65.37,2.84,1.1,3.58.73.73,1.78,1.1,3.15,1.1s2.41-.37,3.15-1.1c.73-.73,1.1-1.92,1.1-3.58v-37.26h8.04v36.71c0,3.9-1.06,6.89-3.18,8.97-2.12,2.09-5.21,3.13-9.25,3.13s-7.13-1.04-9.25-3.13Z"/>
    <path class="st2" d="M240.79,35.31h12.74c4.14,0,7.25,1.01,9.32,3.03,2.07,2.02,3.11,4.97,3.11,8.87v24.34c0,3.9-1.04,6.85-3.11,8.87-2.07,2.02-5.18,3.03-9.32,3.03h-12.74v-48.13ZM253.37,76.56c1.36,0,2.41-.37,3.15-1.1.73-.73,1.1-1.92,1.1-3.58v-25.03c0-1.65-.37-2.84-1.1-3.58-.73-.73-1.78-1.1-3.15-1.1h-4.25v34.38h4.25Z"/>
  </g>
  <g>
    <path class="st3" d="M25.57,46.45c-.1-3.45-.05-6.91-.05-10.8,2.64.98,4.92,1.68,7.08,2.66,1.62.74,3.01.58,4.61-.05,7.74-3.01,15.52-5.91,23.28-8.84.71-.27,1.44-.49,2.43-.81,0,3.75.05,7.28-.06,10.8-.02.5-.69,1.22-1.2,1.42-8.6,3.31-17.22,6.57-25.85,9.79-.54.2-1.25.23-1.79.05-2.46-.85-4.91-1.74-7.31-2.75-.51-.21-1.12-.96-1.14-1.48Z"/>
    <path class="st1" d="M64.33,57.1l-10.43,10.36-.16-3.58c-5.99,2.32-12.01,4.58-18.04,6.8-.53.2-1.25.18-1.79-.01-2.39-.83-4.77-1.71-7.1-2.69-.53-.22-1.22-.91-1.24-1.41-.11-3.52-.06-7.05-.06-10.91,2.59.97,4.91,1.74,7.15,2.72,1.54.68,2.89.57,4.42-.04,5.43-2.14,10.9-4.17,16.36-6.23v-5.84l10.89,10.82Z"/>
    <path class="st0" d="M62.84,79.66c0,.44-.67,1.07-1.15,1.26-8.6,3.29-17.22,6.54-25.85,9.74-.59.22-1.39.22-1.98.01-2.39-.82-4.76-1.71-7.1-2.68-.49-.2-1.17-.8-1.18-1.23-.1-3.59-.05-7.18-.05-11.06,2.73,1.02,5.13,2.03,7.59,2.77,1.05.32,2.36.39,3.37.03,7.92-2.89,15.8-5.91,23.7-8.89.78-.3,1.56-.56,2.73-.96,0,3.87.04,7.44-.05,11.01Z"/>
  </g>
</svg>